<svg width="407" height="407" viewBox="0 0 407 407" fill="none" xmlns="http://www.w3.org/2000/svg">
<path fill-rule="evenodd" clip-rule="evenodd" d="M347.196 333.096C418.697 253.687 412.285 131.351 332.876 59.8503C253.467 -11.6501 131.13 -5.23874 59.6299 74.1705C27.0943 110.305 10.6913 155.328 9.95788 200.405C9.75254 213.027 22.7402 220.807 34.4542 216.102L224.091 139.933C243.744 132.04 263.888 150.178 258.092 170.548L200.272 373.753C196.907 385.578 205.455 397.491 217.715 396.584C265.707 393.033 312.453 371.682 347.196 333.096Z" fill="#54D0A5"/>
<path d="M186.299 202.674C195.57 198.873 205.052 207.645 201.982 217.183L151.368 374.454C148.134 384.502 134.335 385.554 129.616 376.112L100.263 317.391C98.7281 314.32 96.0896 311.942 92.8759 310.733L32.212 287.906C22.1941 284.137 21.9883 270.04 31.8918 265.98L186.299 202.674Z" fill="white"/>
</svg>
